# xmcd CD database file
#
# Track frame offsets:
#	150
#	19270
#	34137
#	50577
#	68501
#	90682
#	104806
#	127467
#
# Disc length: 1949 seconds
#
# Revision: 0
# Processed by: cddbd v1.5.1PL2 Copyright (c) Steve Scherf et al.
# Submitted via: CDex 1.51
#
DISCID=74079b08
DTITLE=Junior Toledo Y Guillo Rivera Orquesta - Se Fugaron
DYEAR=1982
DGENRE=Salsa
TTITLE0=Sonambulo
TTITLE1=Migajas
TTITLE2=Pa' Lante
TTITLE3=Al Contrario
TTITLE4=Vete Llorar Y Sufrir
TTITLE5=No Pare La Fiesta
TTITLE6=Pobre Diablo
TTITLE7=Presentimiento
EXTD=YEAR: 1982
EXTT0=
EXTT1=
EXTT2=
EXTT3=
EXTT4=
EXTT5=
EXTT6=
EXTT7=
PLAYORDER=
